<?xml version="1.0" encoding="UTF-8" standalone="no"?>
<!-- Created with Inkscape (http://www.inkscape.org/) -->

<svg
   version="1.1"
   id="svg2"
   width="642.52002"
   height="113.38667"
   viewBox="0 0 642.52002 113.38667"
   sodipodi:docname="EOSC _ BlueCloud2026_ColourPos.eps"
   xmlns:inkscape="http://www.inkscape.org/namespaces/inkscape"
   xmlns:sodipodi="http://sodipodi.sourceforge.net/DTD/sodipodi-0.dtd"
   xmlns="http://www.w3.org/2000/svg"
   xmlns:svg="http://www.w3.org/2000/svg">
  <defs
     id="defs6" />
  <sodipodi:namedview
     id="namedview4"
     pagecolor="#ffffff"
     bordercolor="#000000"
     borderopacity="0.25"
     inkscape:showpageshadow="2"
     inkscape:pageopacity="0.0"
     inkscape:pagecheckerboard="0"
     inkscape:deskcolor="#d1d1d1" />
  <g
     id="g8"
     inkscape:groupmode="layer"
     inkscape:label="ink_ext_XXXXXX"
     transform="matrix(1.3333333,0,0,-1.3333333,0,113.38667)">
    <g
       id="g10"
       transform="scale(0.1)">
      <path
         d="m 798.051,497.781 c 7.605,7.446 16.183,12.942 25.738,16.512 9.547,3.555 19.18,5.34 28.891,5.34 11.972,0 23.383,-2.598 34.23,-7.77 10.844,-5.179 20.063,-12.55 27.672,-22.093 7.606,-9.551 11.898,-20.961 12.867,-34.235 v -3.879 H 774.918 c 1.152,6.09 2.652,11.809 4.684,16.996 4.695,11.969 10.839,21.684 18.449,29.129 m 164.847,-74.527 c 3.879,3.394 5.821,7.684 5.821,12.863 -0.317,18.453 -3.723,34.957 -10.192,49.524 -6.48,14.57 -15.05,27.195 -25.734,37.879 -10.684,10.675 -22.988,18.761 -36.902,24.273 -13.926,5.5 -28.328,8.254 -43.211,8.254 -20.078,0 -39.09,-5.262 -57.051,-15.781 -17.969,-10.524 -32.535,-25.731 -43.703,-45.641 -11.164,-19.902 -16.75,-43.941 -16.75,-72.105 0,-25.243 5.344,-47.504 16.027,-66.758 10.684,-19.262 25.731,-34.403 45.149,-45.403 19.429,-11.007 42.246,-16.504 68.468,-16.504 17.477,0 33.899,3.723 49.282,11.168 15.371,7.442 27.753,16.18 37.144,26.219 5.172,4.531 7.77,9.547 7.77,15.051 0,4.527 -1.621,8.418 -4.864,11.656 -3.238,3.227 -7.117,4.856 -11.648,4.856 -4.211,0 -8.418,-1.457 -12.625,-4.371 -4.211,-4.539 -9.309,-8.985 -15.297,-13.36 -5.992,-4.371 -13.187,-8.004 -21.609,-10.922 -8.418,-2.91 -18.285,-4.367 -29.61,-4.367 -18.136,0 -33.992,4.125 -47.582,12.383 -13.597,8.254 -24.207,19.496 -31.808,33.742 -6.61,12.371 -10.332,26.449 -11.203,42.246 h 176.531 c 5.172,0 9.715,1.699 13.597,5.098"
         style="fill:#040305;fill-opacity:1;fill-rule:nonzero;stroke:none"
         id="path12" />
      <path
         d="m 1226.06,424.953 c 0,18.77 -3.81,35.199 -11.41,49.281 -7.62,14.082 -17.96,25.246 -31.08,33.5 -13.11,8.254 -27.76,12.383 -43.94,12.383 -16.5,0 -31.32,-4.129 -44.42,-12.383 -13.11,-8.254 -23.55,-19.418 -31.32,-33.5 -7.77,-14.082 -11.65,-30.511 -11.65,-49.281 0,-18.453 3.88,-34.801 11.65,-49.039 7.77,-14.25 18.21,-25.496 31.32,-33.75 13.1,-8.254 27.92,-12.383 44.42,-12.383 16.18,0 30.83,4.129 43.94,12.383 13.12,8.254 23.46,19.5 31.08,33.75 7.6,14.238 11.41,30.586 11.41,49.039 m 39.33,0 c 0,-25.25 -5.58,-47.754 -16.76,-67.492 -11.16,-19.742 -26.21,-35.289 -45.15,-46.613 -18.93,-11.336 -40.22,-16.993 -63.85,-16.993 -23.63,0 -45,5.657 -64.09,16.993 -19.1,11.324 -34.23,26.871 -45.4,46.613 -11.16,19.738 -16.75,42.242 -16.75,67.492 0,25.246 5.59,47.738 16.75,67.492 11.17,19.739 26.3,35.274 45.4,46.61 19.09,11.324 40.46,16.992 64.09,16.992 23.63,0 44.92,-5.668 63.85,-16.992 18.94,-11.336 33.99,-26.871 45.15,-46.61 11.18,-19.754 16.76,-42.246 16.76,-67.492"
         style="fill:#040305;fill-opacity:1;fill-rule:nonzero;stroke:none"
         id="path14" />
      <path
         d="m 1309.09,338.523 c -2.6,4.207 -3.81,8.653 -3.65,13.356 0.16,4.691 2.83,8.812 8.02,12.379 3.56,2.262 7.52,3.23 11.89,2.914 4.37,-0.328 8.33,-2.426 11.9,-6.313 9.05,-10.683 19.42,-19.179 31.07,-25.492 11.65,-6.312 25.89,-9.469 42.73,-9.469 7.44,0.321 15.13,1.618 23.06,3.883 7.93,2.266 14.57,6.231 19.91,11.899 5.34,5.656 8.01,13.183 8.01,22.578 0,9.058 -2.75,16.269 -8.25,21.605 -5.51,5.34 -12.71,9.711 -21.61,13.11 -8.91,3.406 -18.37,6.386 -28.41,8.984 -10.68,2.914 -21.2,6.145 -31.56,9.707 -10.36,3.559 -19.66,8.18 -27.91,13.844 -8.26,5.652 -14.89,12.781 -19.91,21.363 -5.02,8.57 -7.53,19.18 -7.53,31.805 0,14.562 3.96,27.187 11.9,37.871 7.93,10.683 18.53,18.937 31.81,24.758 13.26,5.828 27.99,8.742 44.17,8.742 9.07,0 18.53,-1.055 28.42,-3.156 9.86,-2.106 19.48,-5.668 28.88,-10.684 9.38,-5.019 17.64,-11.898 24.76,-20.633 2.92,-3.238 4.53,-7.281 4.86,-12.136 0.32,-4.86 -1.79,-9.231 -6.31,-13.114 -3.57,-2.597 -7.53,-3.804 -11.9,-3.636 -4.37,0.156 -8.01,1.695 -10.92,4.605 -7.13,8.418 -15.78,14.812 -25.98,19.184 -10.2,4.371 -21.45,6.554 -33.75,6.554 -7.45,0 -14.89,-1.215 -22.33,-3.64 -7.45,-2.43 -13.68,-6.235 -18.69,-11.414 -5.02,-5.18 -7.53,-12.465 -7.53,-21.844 0.32,-8.742 3.23,-15.871 8.74,-21.367 5.5,-5.512 12.94,-9.953 22.34,-13.356 9.38,-3.398 19.73,-6.715 31.07,-9.953 10.36,-2.59 20.31,-5.578 29.86,-8.984 9.54,-3.391 18.21,-7.844 25.98,-13.352 7.77,-5.508 13.91,-12.547 18.45,-21.117 4.53,-8.582 6.79,-19.352 6.79,-32.289 0,-14.891 -4.21,-27.758 -12.62,-38.602 -8.42,-10.847 -19.5,-19.097 -33.26,-24.761 -13.76,-5.657 -28.57,-8.497 -44.42,-8.497 -17.81,0 -35.45,3.325 -52.93,9.954 -17.47,6.629 -32.53,18.211 -45.15,34.714"
         style="fill:#040305;fill-opacity:1;fill-rule:nonzero;stroke:none"
         id="path16" />
      <path
         d="m 1664.99,556.047 c 16.83,0 31.87,-1.781 45.15,-5.344 13.27,-3.562 23.79,-8.418 31.56,-14.566 7.77,-6.153 11.65,-13.106 11.65,-20.875 0,-4.539 -1.45,-8.742 -4.36,-12.625 -2.92,-3.879 -6.97,-5.828 -12.15,-5.828 -4.2,0 -7.68,0.89 -10.43,2.671 -2.76,1.778 -5.34,3.887 -7.77,6.313 -2.43,2.43 -5.75,4.773 -9.95,7.035 -3.89,1.949 -9.55,3.649 -17,5.106 -7.45,1.457 -14.89,2.183 -22.33,2.183 -17.81,0 -33.43,-4.215 -46.86,-12.625 -13.43,-8.418 -24.04,-19.75 -31.8,-33.992 -7.77,-14.246 -11.65,-30.426 -11.65,-48.547 0,-18.137 3.71,-34.316 11.16,-48.558 7.45,-14.247 17.8,-25.571 31.07,-33.989 13.28,-8.418 28.65,-12.625 46.13,-12.625 11.33,0 20.32,0.973 26.95,2.914 6.63,1.942 12.38,4.207 17.24,6.801 5.5,3.234 9.79,6.473 12.87,9.711 3.07,3.231 7.35,4.856 12.86,4.856 5.5,0 9.79,-1.782 12.87,-5.34 3.07,-3.571 4.62,-7.934 4.62,-13.114 0,-6.152 -4.06,-12.464 -12.15,-18.933 -8.09,-6.481 -19.1,-11.903 -33.01,-16.266 -13.93,-4.371 -29.47,-6.555 -46.62,-6.555 -24.6,0 -46.12,5.739 -64.58,17.239 -18.45,11.484 -32.77,27.187 -42.97,47.09 -10.19,19.91 -15.29,42.164 -15.29,66.769 0,24.59 5.26,46.774 15.78,66.516 10.52,19.746 25.17,35.441 43.94,47.101 18.77,11.649 40.46,17.477 65.07,17.477"
         style="fill:#040305;fill-opacity:1;fill-rule:nonzero;stroke:none"
         id="path18" />
      <path
         d="m 380.035,535.035 c -21.25,13.742 -45.867,21.012 -71.183,21.012 -25.34,0 -49.965,-7.27 -71.223,-21.035 -4.336,-2.809 -7.133,-7.391 -7.688,-12.567 -0.558,-5.293 1.278,-10.476 5.028,-14.226 l 7.121,-7.121 c 3.379,-3.375 7.812,-5.125 12.273,-5.125 3.102,0 6.215,0.843 9.004,2.562 13.672,8.453 29.406,12.922 45.485,12.922 16.062,0 31.781,-4.461 45.453,-12.902 6.808,-4.203 15.55,-3.157 21.269,2.562 l 7.121,7.121 c 3.758,3.758 5.586,8.946 5.028,14.235 -0.551,5.179 -3.348,9.757 -7.688,12.562"
         style="fill:#0032b1;fill-opacity:1;fill-rule:nonzero;stroke:none"
         id="path20" />
      <path
         d="m 288.684,339.309 c -39.696,9.39 -67.426,44.437 -67.426,85.226 0,16.172 4.488,32.008 12.992,45.774 4.039,6.546 3.023,14.957 -2.473,20.445 l -7.121,7.129 c -3.609,3.609 -8.605,5.363 -13.695,4.832 -4.984,-0.531 -9.383,-3.219 -12.078,-7.387 C 185.219,474.195 178,449.715 178,424.535 c 0,-61.195 43.41,-114.972 103.223,-127.879 1.14,-0.242 2.285,-0.367 3.433,-0.367 3.696,0 7.313,1.274 10.282,3.668 3.992,3.219 6.277,8.004 6.277,13.113 v 9.942 c 0,7.726 -5.274,14.582 -12.531,16.297"
         style="fill:#009bdd;fill-opacity:1;fill-rule:nonzero;stroke:none"
         id="path22" />
      <path
         d="m 527.285,555.383 c -72.152,0 -130.851,-58.699 -130.851,-130.856 l 0.07,-0.57 -0.078,-0.648 c -0.567,-41.051 -30.207,-76.657 -70.469,-84.661 -5.488,-1.093 -9.473,-5.949 -9.473,-11.535 v -19.972 c 0,-3.493 1.528,-6.801 4.2,-9.075 2.609,-2.214 6.027,-3.175 9.371,-2.625 63.535,10.395 109.644,64.692 109.644,129.094 0,48.293 39.293,87.582 87.586,87.582 48.305,0 87.59,-39.289 87.59,-87.59 0,-48.293 -39.285,-87.586 -87.59,-87.586 -11.926,0 -21.629,-9.695 -21.629,-21.628 0,-11.926 9.703,-21.629 21.629,-21.629 72.156,0 130.856,58.699 130.856,130.843 0,72.157 -58.7,130.856 -130.856,130.856"
         style="fill:#0032b1;fill-opacity:1;fill-rule:nonzero;stroke:none"
         id="path24" />
      <path
         d="m 1912.8,163.496 h 5.59 v 523.402 h -5.59 V 163.496"
         style="fill:#040305;fill-opacity:1;fill-rule:nonzero;stroke:none"
         id="path26" />
      <path
         d="m 4034.6,323.684 h -129.32 l 68.99,74.836 c 32.32,35.031 48.48,65.222 48.48,90.582 0,20.875 -6.96,37.593 -20.88,50.156 -13.92,12.562 -32.85,18.844 -56.79,18.844 -25.59,0 -46.03,-7.317 -61.3,-21.942 -15.28,-14.625 -22.91,-33.789 -22.91,-57.496 h 32.73 c 0,16.512 4.51,29.395 13.53,38.656 9.03,9.258 21.68,13.887 37.95,13.887 13.56,0 24.42,-4.305 32.55,-12.914 8.14,-8.609 12.21,-19.637 12.21,-33.082 0,-10.027 -2.51,-19.727 -7.52,-29.106 -5.01,-9.375 -14.12,-21.554 -27.33,-36.531 L 3865.82,320.5 v -23.531 h 168.78 z m 196.2,125.613 c -0.35,37.031 -7.07,64.426 -20.17,82.176 -13.09,17.75 -33.49,26.629 -61.21,26.629 -27.95,0 -48.47,-9.204 -61.57,-27.602 -13.09,-18.398 -19.63,-46.527 -19.63,-84.391 v -43.695 c 0.47,-36.211 7.31,-63.426 20.52,-81.648 13.21,-18.223 33.55,-27.332 61.04,-27.332 27.83,0 48.29,9.312 61.39,27.953 13.09,18.633 19.63,47.117 19.63,85.449 z m -32.73,-51.309 c -0.35,-26.89 -4.45,-46.59 -12.29,-59.09 -7.85,-12.5 -19.85,-18.753 -36,-18.753 -16.4,0 -28.64,6.636 -36.72,19.906 -8.08,13.265 -12.11,33.816 -12.11,61.652 v 52.371 c 0.23,26.184 4.18,45.582 11.85,58.203 7.67,12.621 19.87,18.93 36.62,18.93 16.87,0 29.19,-6.34 36.98,-19.016 7.78,-12.679 11.67,-32.878 11.67,-60.593 z m 243.44,-74.304 h -129.32 l 68.99,74.836 c 32.32,35.031 48.48,65.222 48.48,90.582 0,20.875 -6.96,37.593 -20.88,50.156 -13.92,12.562 -32.85,18.844 -56.79,18.844 -25.59,0 -46.03,-7.317 -61.3,-21.942 -15.28,-14.625 -22.91,-33.789 -22.91,-57.496 h 32.73 c 0,16.512 4.51,29.395 13.53,38.656 9.03,9.258 21.68,13.887 37.95,13.887 13.56,0 24.42,-4.305 32.55,-12.914 8.14,-8.609 12.21,-19.637 12.21,-33.082 0,-10.027 -2.51,-19.727 -7.52,-29.106 -5.01,-9.375 -14.12,-21.554 -27.33,-36.531 L 4272.73,320.5 v -23.531 h 168.78 z m 157.28,231.054 c -39.98,-0.59 -70.09,-13.418 -90.32,-38.48 -20.22,-25.063 -30.34,-61.301 -30.34,-108.715 V 394.98 c 0,-29.839 7.67,-54.222 23,-73.152 15.33,-18.93 35.33,-28.394 59.98,-28.394 24.29,0 43.67,7.961 58.11,23.882 14.45,15.922 21.68,37.153 21.68,63.692 0,25 -6.7,45.406 -20.08,61.211 -13.39,15.804 -31.29,23.707 -53.7,23.707 -23.47,0 -41.99,-7.785 -55.55,-23.352 2.36,26.535 11.09,47.117 26.18,61.742 15.1,14.625 35.39,22.172 60.86,22.645 h 6.02 v 27.777 z m -3.1,-132.422 c 8.55,-10.91 12.83,-25.211 12.83,-42.902 0,-17.574 -4.22,-31.785 -12.65,-42.637 -8.43,-10.851 -20.02,-16.277 -34.76,-16.277 -14.27,0 -26.19,6.484 -35.74,19.461 -9.55,12.973 -14.33,30.074 -14.33,51.305 v 12.031 c 3.65,10.144 10.2,18.578 19.64,25.301 9.43,6.722 19.75,10.082 30.96,10.082 14.15,0 25.5,-5.457 34.05,-16.364"
         style="fill:#009bdd;fill-opacity:1;fill-rule:nonzero;stroke:none"
         id="path28" />
      <path
         d="m 2166.06,296.969 c 27.36,0 48.53,6.605 63.51,19.816 14.98,13.207 22.47,31.371 22.47,54.488 0,15.098 -4.04,28.102 -12.12,39.012 -8.08,10.91 -19.08,18.313 -32.99,22.203 11.79,5.071 21.11,12.235 27.95,21.496 6.84,9.258 10.26,19.903 10.26,31.934 0,22.645 -7.05,39.746 -21.14,51.305 -14.09,11.558 -35.12,17.34 -63.07,17.34 h -84.21 V 296.969 Z m 1.24,120.48 c 33.73,0 50.6,-15.508 50.6,-46.527 0,-14.391 -4.58,-25.684 -13.71,-33.879 -9.15,-8.199 -21.62,-12.297 -37.42,-12.297 h -56.08 v 92.703 z m -56.61,109.336 h 50.24 c 16.86,0 29.43,-3.222 37.68,-9.664 8.26,-6.441 12.39,-16.754 12.39,-30.937 0,-12.766 -4.46,-22.871 -13.36,-30.321 -8.91,-7.445 -20.79,-11.168 -35.65,-11.168 h -51.3 z m 222.03,41.93 h -32.73 V 296.969 h 32.73 z m 171.25,-271.746 h 31.14 v 191.426 h -32.73 V 349.16 c -8.26,-18.637 -24.89,-27.953 -49.89,-27.953 -23.59,0 -35.38,14.508 -35.38,43.523 v 123.665 h -32.73 V 363.844 c 0.11,-23.235 5.51,-40.778 16.18,-52.633 10.68,-11.852 26.22,-17.777 46.62,-17.777 24.65,0 43.35,7.488 56.08,22.464 z m 232.47,33.437 -19.99,15.571 c -6.02,-7.786 -13.03,-14.039 -21.05,-18.754 -8.03,-4.719 -17.81,-7.078 -29.37,-7.078 -16.28,0 -29.7,5.808 -40.25,17.429 -10.56,11.614 -16.07,26.86 -16.54,45.731 h 129.68 v 13.625 c 0,30.543 -6.9,54.015 -20.7,70.41 -13.8,16.394 -33.15,24.594 -58.03,24.594 -15.22,0 -29.34,-4.219 -42.37,-12.653 -13.04,-8.433 -23.18,-20.109 -30.43,-35.027 -7.26,-14.922 -10.88,-31.875 -10.88,-50.863 v -6.016 c 0,-28.547 8.14,-51.336 24.41,-68.379 16.28,-17.043 37.39,-25.562 63.34,-25.562 32.08,0 56.14,12.32 72.18,36.972 z m -43.7,120.922 c 8.02,-9.14 12.5,-22.023 13.45,-38.652 v -2.481 h -95.89 c 2.12,17.34 7.66,30.813 16.63,40.426 8.96,9.613 20.05,14.418 33.26,14.418 13.68,0 24.53,-4.57 32.55,-13.711 z m 188.38,-31.578 h -86.33 v -26.715 h 86.33 z m 214.05,-41.043 c -3.3,-21.23 -9.99,-36.121 -20.08,-44.672 -10.08,-8.555 -24.56,-12.828 -43.43,-12.828 -21,0 -37.33,8.262 -49.01,24.789 -11.67,16.524 -17.51,38.777 -17.51,66.754 v 24.969 c 0,29.629 6.16,52.469 18.49,68.523 12.32,16.055 29.33,24.082 51.04,24.082 17.69,0 31.46,-4.613 41.31,-13.84 9.84,-9.226 16.24,-24.136 19.19,-44.718 h 34.15 c -2.72,27.007 -12.33,48.148 -28.84,63.422 -16.51,15.273 -38.45,22.914 -65.81,22.914 -20.64,0 -38.81,-4.868 -54.49,-14.598 -15.69,-9.731 -27.81,-23.68 -36.36,-41.84 -8.55,-18.164 -12.83,-39.219 -12.83,-63.16 v -24.77 c 0,-36.562 9.17,-65.754 27.51,-87.574 18.34,-21.82 42.73,-32.726 73.16,-32.726 28.07,0 50.57,7.398 67.49,22.203 16.93,14.797 26.98,35.824 30.17,63.07 z m 110.93,190.008 h -32.73 V 296.969 h 32.73 z m 43.7,-176.563 c 0,-29.722 8.05,-53.605 24.15,-71.652 16.1,-18.047 37.12,-27.066 63.07,-27.066 17.22,0 32.46,4.125 45.73,12.382 13.27,8.254 23.47,19.786 30.61,34.586 7.13,14.801 10.7,31.52 10.7,50.157 v 2.3 c 0,29.957 -8.05,53.961 -24.15,72.004 -16.1,18.047 -37.18,27.071 -63.25,27.071 -16.86,0 -31.87,-4.071 -45.02,-12.207 -13.15,-8.141 -23.42,-19.7 -30.79,-34.676 -7.37,-14.981 -11.05,-31.848 -11.05,-50.598 z m 47.77,53.606 c 9.9,12.855 22.93,19.281 39.09,19.281 16.52,0 29.75,-6.516 39.72,-19.547 9.97,-13.035 14.95,-30.047 14.95,-51.039 0,-23.473 -4.89,-41.726 -14.68,-54.758 -9.79,-13.035 -23,-19.55 -39.63,-19.55 -16.52,0 -29.7,6.429 -39.54,19.285 -9.85,12.855 -14.78,29.898 -14.78,51.129 0,23.941 4.96,42.343 14.87,55.199 z m 286.42,-148.789 h 31.14 V 488.395 H 3582.4 V 349.16 c -8.26,-18.637 -24.89,-27.953 -49.89,-27.953 -23.59,0 -35.38,14.508 -35.38,43.523 V 488.395 H 3464.4 V 363.844 c 0.11,-23.235 5.51,-40.778 16.19,-52.633 10.67,-11.852 26.21,-17.777 46.61,-17.777 24.65,0 43.35,7.488 56.09,22.464 z m 72.89,94.828 c 0,-29.25 6.99,-52.957 20.97,-71.121 13.98,-18.164 32.05,-27.242 54.22,-27.242 23.36,0 41.58,8.015 54.67,24.058 l 1.59,-20.523 h 30.08 v 271.746 h -32.73 v -99.781 c -13.09,15.332 -30.84,23 -53.25,23 -22.53,0 -40.75,-8.934 -54.67,-26.805 -13.92,-17.867 -20.88,-41.484 -20.88,-70.856 z m 46.18,53.785 c 8.96,12.383 21.46,18.574 37.51,18.574 20.28,0 35.32,-9.023 45.11,-27.066 v -87.93 c -9.55,-18.637 -24.71,-27.953 -45.47,-27.953 -15.8,0 -28.19,6.133 -37.15,18.398 -8.97,12.266 -13.45,29.25 -13.45,50.954 0,24.296 4.48,42.636 13.45,55.023"
         style="fill:#0032b1;fill-opacity:1;fill-rule:nonzero;stroke:none"
         id="path30" />
    </g>
  </g>
</svg>
